<svg width="957" height="252" viewBox="0 0 957 252" fill="none" xmlns="http://www.w3.org/2000/svg">
<g clip-path="url(#clip0_1_37)">
<path d="M217.138 41.4037C219.139 41.4037 221.094 41.9418 222.758 42.9501C224.421 43.9584 225.718 45.3915 226.483 47.0682C227.249 48.745 227.449 50.5899 227.059 52.3699C226.669 54.15 225.705 55.7851 224.291 57.0684C222.876 58.3517 221.074 59.2256 219.112 59.5797C217.149 59.9337 215.116 59.752 213.267 59.0574C211.419 58.3629 209.839 57.1868 208.728 55.6777C207.616 54.1687 207.023 52.3945 207.023 50.5796C207.023 48.146 208.089 45.8121 209.986 44.0913C211.883 42.3705 214.455 41.4038 217.138 41.4037Z" fill="#2C458C"/>
<path d="M310.782 15.4155C310.782 10.3478 306.254 6.2396 300.667 6.2396C295.081 6.2396 290.553 10.3478 290.553 15.4155C290.553 20.4831 295.081 24.5913 300.667 24.5913C306.254 24.5913 310.782 20.4831 310.782 15.4155Z" fill="#2C458C"/>
<path d="M858.789 77.3024C860.789 77.3024 862.745 77.8405 864.408 78.8488C866.072 79.857 867.369 81.2901 868.134 82.9668C868.9 84.6436 869.1 86.4886 868.71 88.2686C868.319 90.0486 867.356 91.6837 865.942 92.967C864.527 94.2503 862.724 95.1242 860.762 95.4783C858.8 95.8323 856.766 95.6507 854.918 94.9561C853.07 94.2616 851.49 93.0854 850.378 91.5763C849.267 90.0673 848.674 88.2932 848.674 86.4783C848.674 84.0447 849.74 81.7108 851.637 79.99C853.533 78.2692 856.106 77.3024 858.789 77.3024Z" fill="#2C458C"/>
<path d="M729.801 227.408C731.801 227.408 733.757 227.946 735.421 228.955C737.084 229.963 738.381 231.396 739.146 233.072C739.912 234.749 740.112 236.594 739.722 238.374C739.332 240.154 738.368 241.789 736.954 243.073C735.539 244.356 733.737 245.23 731.775 245.584C729.813 245.938 727.779 245.756 725.93 245.062C724.082 244.368 722.502 243.191 721.391 241.682C720.279 240.173 719.686 238.399 719.686 236.584C719.686 235.379 719.948 234.186 720.456 233.073C720.964 231.96 721.709 230.948 722.648 230.096C723.588 229.244 724.703 228.568 725.93 228.107C727.157 227.646 728.473 227.408 729.801 227.408Z" fill="#2C458C"/>
<path d="M233.583 167.854C235.584 167.854 237.539 168.392 239.202 169.401C240.866 170.409 242.162 171.842 242.927 173.519C243.693 175.195 243.893 177.04 243.503 178.82C243.113 180.6 242.149 182.235 240.735 183.518C239.32 184.801 237.518 185.675 235.556 186.029C233.594 186.383 231.56 186.202 229.712 185.507C227.863 184.813 226.284 183.637 225.172 182.128C224.061 180.619 223.468 178.845 223.468 177.03C223.468 175.825 223.729 174.632 224.238 173.518C224.746 172.405 225.491 171.393 226.431 170.541C227.37 169.689 228.485 169.013 229.712 168.552C230.939 168.091 232.255 167.854 233.583 167.854Z" fill="#2C458C"/>
<path d="M198.866 174.188C198.866 169.12 194.337 165.012 188.751 165.012C183.164 165.012 178.636 169.12 178.636 174.188C178.636 179.256 183.164 183.364 188.751 183.364C194.337 183.364 198.866 179.256 198.866 174.188Z" fill="#2C458C"/>
<path d="M16.9929 194.508C18.9935 194.508 20.949 195.046 22.6124 196.055C24.2758 197.063 25.5722 198.496 26.3378 200.173C27.1034 201.849 27.3037 203.694 26.9134 205.474C26.5231 207.254 25.5598 208.889 24.1452 210.172C22.7306 211.456 20.9283 212.33 18.9662 212.684C17.0041 213.038 14.9704 212.856 13.1221 212.162C11.2739 211.467 9.69418 210.291 8.58274 208.782C7.47131 207.273 6.87805 205.499 6.87805 203.684C6.87811 201.251 7.94378 198.917 9.84067 197.196C11.7376 195.475 14.3103 194.508 16.9929 194.508Z" fill="#2C458C"/>
<path d="M809.023 60.1109C809.023 55.0432 804.495 50.935 798.909 50.935C793.322 50.935 788.794 55.0432 788.794 60.1109C788.794 65.1786 793.322 69.2867 798.909 69.2867C804.495 69.2867 809.023 65.1786 809.023 60.1109Z" fill="#56739C"/>
<path d="M751.576 108.873C751.576 103.805 747.048 99.6969 741.462 99.6969C735.875 99.6969 731.347 103.805 731.347 108.873C731.347 113.94 735.875 118.049 741.462 118.049C747.048 118.049 751.576 113.94 751.576 108.873Z" fill="#6C90C9"/>
<path d="M44.6071 242.8C44.6071 237.732 40.0785 233.624 34.4922 233.624C28.9059 233.624 24.3773 237.732 24.3773 242.8C24.3773 247.868 28.9059 251.976 34.4922 251.976C40.0785 251.976 44.6071 247.868 44.6071 242.8Z" fill="#6C90C9"/>
<path d="M180.333 125.822C182.333 125.822 184.289 126.36 185.952 127.368C187.616 128.377 188.912 129.81 189.678 131.486C190.444 133.163 190.644 135.008 190.254 136.788C189.863 138.568 188.9 140.203 187.485 141.487C186.071 142.77 184.269 143.644 182.306 143.998C180.344 144.352 178.311 144.17 176.462 143.476C174.614 142.781 173.034 141.605 171.923 140.096C170.811 138.587 170.218 136.813 170.218 134.998C170.218 133.793 170.479 132.6 170.988 131.487C171.496 130.374 172.241 129.362 173.18 128.51C174.119 127.658 175.235 126.982 176.462 126.521C177.689 126.059 179.004 125.822 180.333 125.822Z" fill="#6C90C9"/>
<path d="M584.342 68.9614C584.342 63.8937 579.813 59.7855 574.227 59.7855C568.641 59.7855 564.112 63.8937 564.112 68.9614C564.112 74.0291 568.641 78.1372 574.227 78.1372C579.813 78.1372 584.342 74.0291 584.342 68.9614Z" fill="#6C90C9"/>
<path d="M217.138 50.4619L720.406 50.4619L854.052 171.701L955.331 171.701" stroke="#2C458C" stroke-width="0.86591" stroke-miterlimit="10"/>
<path d="M300.668 15.4144L506.361 15.4144L545.12 50.58" stroke="#2C458C" stroke-width="0.86591" stroke-miterlimit="10"/>
<path d="M233.584 176.914L283.309 131.8L586.234 131.8L630.153 91.9627L678.375 91.9627L807.425 209.027L982.998 209.027" stroke="#2C458C" stroke-width="0.86591" stroke-miterlimit="10"/>
<path d="M180.332 134.999L216.031 102.615L416.564 102.615L453.663 68.9603L574.226 68.9603" stroke="#6C90C9" stroke-width="0.86591" stroke-miterlimit="10"/>
<path d="M798.906 60.1098L824.816 36.6102L963.421 36.6102" stroke="#56739C" stroke-width="0.86591" stroke-miterlimit="10"/>
<path d="M783.637 107.828L835.256 107.828L858.789 86.4791" stroke="#2C458C" stroke-width="0.86591" stroke-miterlimit="10"/>
<path d="M34.4939 242.8L207.023 242.8L255.446 198.872L705.788 198.872L769.312 141.246L955.331 141.246" stroke="#6C90C9" stroke-width="0.86591" stroke-miterlimit="10"/>
<path d="M729.799 236.583L793.621 178.686L832.646 178.686L865.289 208.304" stroke="#2C458C" stroke-width="0.86591" stroke-miterlimit="10"/>
<path d="M315.286 198.872L348.629 168.624L564.112 168.624L587.515 147.394L699 147.394L741.46 108.871" stroke="#6C90C9" stroke-width="0.86591" stroke-miterlimit="10"/>
<path d="M188.748 174.187L156.962 203.027L16.9946 203.027" stroke="#2C458C" stroke-width="0.86591" stroke-miterlimit="10"/>
<path d="M729.801 222.021C726.626 222.021 723.522 222.875 720.882 224.475C718.242 226.075 716.184 228.35 714.969 231.011C713.754 233.672 713.436 236.6 714.055 239.425C714.675 242.25 716.204 244.845 718.449 246.882C720.694 248.919 723.554 250.306 726.668 250.868C729.783 251.429 733.01 251.141 735.944 250.039C738.877 248.937 741.384 247.07 743.148 244.675C744.912 242.28 745.854 239.465 745.854 236.584C745.854 234.672 745.439 232.778 744.632 231.011C743.826 229.244 742.643 227.639 741.152 226.287C739.662 224.934 737.892 223.862 735.944 223.13C733.997 222.398 731.909 222.021 729.801 222.021Z" stroke="#2C458C" stroke-width="0.34636" stroke-miterlimit="10"/>
<path d="M858.789 71.9153C855.614 71.9153 852.51 72.7694 849.87 74.3696C847.23 75.9698 845.172 78.2442 843.957 80.9053C842.742 83.5664 842.424 86.4946 843.043 89.3196C843.663 92.1446 845.192 94.7395 847.437 96.7763C849.682 98.813 852.542 100.2 855.657 100.762C858.771 101.324 861.999 101.035 864.932 99.9331C867.865 98.8308 870.373 96.9642 872.136 94.5692C873.9 92.1743 874.842 89.3586 874.842 86.4783C874.842 82.616 873.15 78.9119 870.14 76.1808C867.129 73.4497 863.046 71.9154 858.789 71.9153Z" stroke="#2C458C" stroke-width="0.34636" stroke-miterlimit="10"/>
<path d="M233.191 50.4615C233.191 42.4186 226.003 35.8986 217.137 35.8986C208.272 35.8986 201.084 42.4186 201.084 50.4615C201.084 58.5044 208.272 65.0244 217.137 65.0244C226.003 65.0244 233.191 58.5044 233.191 50.4615Z" stroke="#2C458C" stroke-width="0.34636" stroke-miterlimit="10"/>
<path d="M316.721 15.4155C316.721 7.37256 309.534 0.852513 300.668 0.852514C291.802 0.852514 284.615 7.37256 284.615 15.4155C284.615 23.4583 291.802 29.9784 300.668 29.9784C309.534 29.9784 316.721 23.4583 316.721 15.4155Z" stroke="#2C458C" stroke-width="0.34636" stroke-miterlimit="10"/>
<path d="M233.583 162.467C230.408 162.467 227.304 163.321 224.664 164.921C222.024 166.521 219.967 168.796 218.752 171.457C217.537 174.118 217.219 177.046 217.838 179.871C218.458 182.696 219.987 185.291 222.232 187.327C224.477 189.364 227.337 190.751 230.451 191.313C233.565 191.875 236.793 191.586 239.726 190.484C242.66 189.382 245.167 187.515 246.931 185.121C248.695 182.726 249.636 179.91 249.636 177.03C249.636 173.167 247.945 169.463 244.934 166.732C241.924 164.001 237.841 162.467 233.583 162.467Z" stroke="#2C458C" stroke-width="0.34636" stroke-miterlimit="10"/>
<path d="M16.993 189.121C13.818 189.121 10.7143 189.976 8.07441 191.576C5.43454 193.176 3.37704 195.45 2.1621 198.112C0.947149 200.773 0.629292 203.701 1.24877 206.526C1.86825 209.35 3.39725 211.945 5.64235 213.982C7.88746 216.019 10.7479 217.405 13.8619 217.967C16.9759 218.529 20.2036 218.241 23.137 217.139C26.0703 216.036 28.5774 214.17 30.3413 211.775C32.1052 209.38 33.0467 206.564 33.0467 203.684C33.0466 201.772 32.6314 199.878 31.8246 198.111C31.0178 196.344 29.8353 194.739 28.3446 193.387C26.8539 192.034 25.0841 190.961 23.1364 190.23C21.1887 189.498 19.1011 189.121 16.993 189.121Z" stroke="#2C458C" stroke-width="0.34636" stroke-miterlimit="10"/>
<path d="M188.751 159.625C185.576 159.625 182.472 160.479 179.832 162.08C177.192 163.68 175.135 165.954 173.92 168.615C172.705 171.277 172.387 174.205 173.007 177.03C173.626 179.854 175.155 182.449 177.4 184.486C179.645 186.522 182.506 187.909 185.62 188.471C188.734 189.033 191.961 188.745 194.895 187.642C197.828 186.54 200.335 184.674 202.099 182.279C203.863 179.884 204.804 177.068 204.804 174.188C204.804 172.276 204.389 170.382 203.582 168.615C202.776 166.848 201.593 165.243 200.102 163.89C198.612 162.538 196.842 161.465 194.894 160.734C192.946 160.002 190.859 159.625 188.751 159.625Z" stroke="#2C458C" stroke-width="0.34636" stroke-miterlimit="10"/>
</g>
<defs>
<clipPath id="clip0_1_37">
<rect width="252" height="983" fill="white" transform="translate(0 252) rotate(-90)"/>
</clipPath>
</defs>
</svg>
